<?xml version="1.0" encoding="UTF-8" standalone="no"?>
<!-- Created with Inkscape (http://www.inkscape.org/) -->

<svg
   xmlns:dc="http://purl.org/dc/elements/1.1/"
   xmlns:cc="http://creativecommons.org/ns#"
   xmlns:rdf="http://www.w3.org/1999/02/22-rdf-syntax-ns#"
   xmlns:svg="http://www.w3.org/2000/svg"
   xmlns="http://www.w3.org/2000/svg"
   xmlns:sodipodi="http://sodipodi.sourceforge.net/DTD/sodipodi-0.dtd"
   xmlns:inkscape="http://www.inkscape.org/namespaces/inkscape"
   version="1.1"
   id="svg2"
   width="160.49294"
   height="160.49187"
   viewBox="0 0 160.49293 160.49186"
   sodipodi:docname="logo-no-text.svg"
   inkscape:version="0.92.4 (5da689c313, 2019-01-14)"
   inkscape:export-filename="Z:\DPT Daan\DPTechnics\publiciteit\DPTechnics logo\png\logo-no-text.png"
   inkscape:export-xdpi="300.27689"
   inkscape:export-ydpi="300.27689">
  <metadata
     id="metadata21">
    <rdf:RDF>
      <cc:Work
         rdf:about="">
        <dc:format>image/svg+xml</dc:format>
        <dc:type
           rdf:resource="http://purl.org/dc/dcmitype/StillImage" />
        <dc:title></dc:title>
      </cc:Work>
    </rdf:RDF>
  </metadata>
  <defs
     id="defs6" />
  <sodipodi:namedview
     id="namedview4"
     pagecolor="#ffffff"
     bordercolor="#000000"
     borderopacity="0.25"
     inkscape:showpageshadow="2"
     inkscape:pageopacity="0.0"
     inkscape:pagecheckerboard="0"
     inkscape:deskcolor="#d1d1d1"
     showgrid="false"
     fit-margin-top="0"
     fit-margin-left="0"
     fit-margin-right="0"
     fit-margin-bottom="0"
     inkscape:zoom="3.0211222"
     inkscape:cx="57.907027"
     inkscape:cy="-15.498954"
     inkscape:window-width="2560"
     inkscape:window-height="1369"
     inkscape:window-x="-8"
     inkscape:window-y="-8"
     inkscape:window-maximized="1"
     inkscape:current-layer="g8" />
  <g
     id="g8"
     inkscape:groupmode="layer"
     inkscape:label="ink_ext_XXXXXX"
     transform="matrix(1.3333333,0,0,-1.3333333,-99.684398,256.72933)">
    <path
       inkscape:connector-curvature="0"
       id="path32"
       style="fill:#2f8887;fill-opacity:1;fill-rule:nonzero;stroke:none;stroke-width:0.1"
       d="m 134.949,189.547 c 17.043,0 32.358,-7.503 42.844,-19.37 2.428,-0.869 4.675,-2.116 6.677,-3.667 -10.87,15.715 -29.009,26.037 -49.521,26.037 -33.187,0 -60.1857,-26.999 -60.1857,-60.185 0,-4.042 0.4074,-7.991 1.1711,-11.812 0.4531,2.088 1.1769,4.075 2.1308,5.925 -0.1988,1.936 -0.3019,3.9 -0.3019,5.887 0,31.532 25.6537,57.185 57.1857,57.185" />
    <path
       inkscape:connector-curvature="0"
       id="path34"
       style="fill:#2f8887;fill-opacity:1;fill-rule:nonzero;stroke:none;stroke-width:0.1"
       d="m 193.79,144.988 c -0.248,-2.592 -0.908,-5.064 -1.909,-7.354 0.159,-1.737 0.252,-3.494 0.252,-5.272 0,-31.532 -25.653,-57.1839 -57.184,-57.1839 -15.586,0 -29.73,6.2739 -40.0549,16.4219 -2.0972,0.418 -4.0968,1.109 -5.9628,2.0309 11.0492,-13.1059 27.5737,-21.4528 46.0177,-21.4528 33.185,0 60.184,26.9981 60.184,60.1839 0,4.331 -0.469,8.552 -1.343,12.626" />
    <path
       inkscape:connector-curvature="0"
       id="path36"
       style="fill:#2f8887;fill-opacity:1;fill-rule:nonzero;stroke:none;stroke-width:0.1"
       d="m 169.635,167.57 h -47.702 v -7.957 h 47.702 c 6.778,0 12.291,-5.513 12.291,-12.29 0,-6.777 -5.513,-12.291 -12.291,-12.291 h -31.714 v -27.903 -0.019 h 7.957 v 0.019 19.946 h 23.757 c 11.165,0 20.248,9.083 20.248,20.248 0,0.362 -0.035,0.716 -0.054,1.074 -0.264,5.005 -2.34,9.53 -5.601,12.926 -3.688,3.842 -8.86,6.247 -14.593,6.247" />
    <path
       inkscape:connector-curvature="0"
       id="path38"
       style="fill:#213c6b;fill-opacity:1;fill-rule:nonzero;stroke:none;stroke-width:0.1"
       d="m 99.648,103.108 c -6.7773,0 -12.291,5.514 -12.291,12.29 0,6.777 5.5137,12.291 12.291,12.291 h 30.831 v 26.694 h -7.957 V 135.646 H 99.648 c -10.2773,0 -18.7707,-7.703 -20.0593,-17.634 -0.1117,-0.858 -0.1887,-1.726 -0.1887,-2.614 0,-7.342 3.9414,-13.764 9.8066,-17.3148 3.0536,-1.848 6.6192,-2.932 10.4414,-2.932 h 46.548 v 7.9568 H 99.648" />
  </g>
</svg>
