<?xml version="1.0" encoding="UTF-8" standalone="no"?>
<!-- Created with Inkscape (http://www.inkscape.org/) -->

<svg
   xmlns:dc="http://purl.org/dc/elements/1.1/"
   xmlns:cc="http://creativecommons.org/ns#"
   xmlns:rdf="http://www.w3.org/1999/02/22-rdf-syntax-ns#"
   xmlns:svg="http://www.w3.org/2000/svg"
   xmlns="http://www.w3.org/2000/svg"
   xmlns:sodipodi="http://sodipodi.sourceforge.net/DTD/sodipodi-0.dtd"
   xmlns:inkscape="http://www.inkscape.org/namespaces/inkscape"
   version="1.1"
   id="svg2"
   width="242.04752"
   height="50"
   viewBox="0 0 242.04751 50"
   sodipodi:docname="logo-horizontal.svg"
   inkscape:version="0.92.4 (5da689c313, 2019-01-14)">
  <metadata
     id="metadata21">
    <rdf:RDF>
      <cc:Work
         rdf:about="">
        <dc:format>image/svg+xml</dc:format>
        <dc:type
           rdf:resource="http://purl.org/dc/dcmitype/StillImage" />
        <dc:title></dc:title>
      </cc:Work>
    </rdf:RDF>
  </metadata>
  <defs
     id="defs6" />
  <sodipodi:namedview
     id="namedview4"
     pagecolor="#ffffff"
     bordercolor="#000000"
     borderopacity="0.25"
     inkscape:showpageshadow="2"
     inkscape:pageopacity="0.0"
     inkscape:pagecheckerboard="0"
     inkscape:deskcolor="#d1d1d1"
     showgrid="false"
     fit-margin-top="0"
     fit-margin-left="0"
     fit-margin-right="0"
     fit-margin-bottom="0"
     inkscape:zoom="1.5105611"
     inkscape:cx="-38.41136"
     inkscape:cy="22.702583"
     inkscape:window-width="2560"
     inkscape:window-height="1369"
     inkscape:window-x="2552"
     inkscape:window-y="-8"
     inkscape:window-maximized="1"
     inkscape:current-layer="g8" />
  <g
     id="g8"
     inkscape:groupmode="layer"
     inkscape:label="ink_ext_XXXXXX"
     transform="matrix(1.3333333,0,0,-1.3333333,-291.33504,181.2368)">
    <g
       id="g887"
       transform="matrix(0.83343677,0,0,0.83343677,218.64192,73.369124)">
      <path
         d="m 60.7977,58.4199 v -12.234 h 3.4949 c 3.7012,0 6.1972,2.4641 6.1972,6.0582 v 0.059 c 0,3.5949 -2.496,6.1168 -6.1972,6.1168 z m -4.5235,4.0289 h 8.0184 c 6.4621,0 10.9269,-4.3777 10.9269,-10.0886 v -0.0571 c 0,-5.7121 -4.4648,-10.148 -10.9269,-10.148 h -8.0184 v 20.2937"
         style="fill:#213c6b;fill-opacity:1;fill-rule:nonzero;stroke:none;stroke-width:0.1"
         id="path12"
         inkscape:connector-curvature="0" />
      <path
         d="m 86.7664,52.216 c 2.2617,0 3.584,1.3328 3.584,3.0719 v 0.059 c 0,2 -1.4102,3.073 -3.6719,3.073 H 83.1836 V 52.216 Z m -8.1066,10.2328 h 8.4004 c 4.9054,0 7.8722,-2.8699 7.8722,-7.0148 v -0.059 c 0,-4.6961 -3.7011,-7.132 -8.3125,-7.132 h -3.4363 v -6.0879 h -4.5238 v 20.2937"
         style="fill:#213c6b;fill-opacity:1;fill-rule:nonzero;stroke:none;stroke-width:0.1"
         id="path14"
         inkscape:connector-curvature="0" />
      <path
         d="m 102.485,58.3332 h -6.2557 v 4.1156 h 17.0357 v -4.1156 h -6.256 V 42.1551 h -4.524 v 16.1781"
         style="fill:#213c6b;fill-opacity:1;fill-rule:nonzero;stroke:none;stroke-width:0.1"
         id="path16"
         inkscape:connector-curvature="0" />
      <path
         d="m 122.931,51.143 c -0.264,1.9711 -1.439,3.3039 -3.319,3.3039 -1.851,0 -3.055,-1.3028 -3.407,-3.3039 z m -11.103,-1.3051 v 0.059 c 0,4.4351 3.202,8.0871 7.784,8.0871 5.258,0 7.666,-4.0289 7.666,-8.436 0,-0.348 -0.029,-0.7539 -0.059,-1.1589 h -10.956 c 0.441,-2.0012 1.851,-3.0442 3.848,-3.0442 1.498,0 2.585,0.4641 3.818,1.5942 l 2.556,-2.2321 c -1.469,-1.798 -3.583,-2.8988 -6.433,-2.8988 -4.728,0 -8.224,3.275 -8.224,8.0297"
         style="fill:#213c6b;fill-opacity:1;fill-rule:nonzero;stroke:none;stroke-width:0.1"
         id="path18"
         inkscape:connector-curvature="0" />
      <path
         d="m 129.249,49.8379 v 0.059 c 0,4.4351 3.436,8.0871 8.254,8.0871 2.966,0 4.817,-0.9852 6.286,-2.609 l -2.732,-2.898 c -0.999,1.0429 -1.998,1.7101 -3.584,1.7101 -2.232,0 -3.818,-1.943 -3.818,-4.2332 v -0.057 c 0,-2.3778 1.557,-4.291 3.995,-4.291 1.498,0 2.526,0.6371 3.612,1.6523 l 2.615,-2.6094 c -1.528,-1.6527 -3.29,-2.8406 -6.433,-2.8406 -4.729,0 -8.195,3.5938 -8.195,8.0297"
         style="fill:#213c6b;fill-opacity:1;fill-rule:nonzero;stroke:none;stroke-width:0.1"
         id="path20"
         inkscape:connector-curvature="0" />
      <path
         d="m 146.201,63.3191 h 4.465 V 55.491 c 1.028,1.3051 2.349,2.493 4.611,2.493 3.378,0 5.347,-2.2031 5.347,-5.768 V 42.1551 h -4.465 v 8.6687 c 0,2.0871 -0.999,3.1602 -2.702,3.1602 -1.704,0 -2.791,-1.0731 -2.791,-3.1602 v -8.6687 h -4.465 v 21.164"
         style="fill:#213c6b;fill-opacity:1;fill-rule:nonzero;stroke:none;stroke-width:0.1"
         id="path22"
         inkscape:connector-curvature="0" />
      <path
         d="m 163.916,57.6949 h 4.465 V 55.491 c 1.028,1.3051 2.349,2.493 4.611,2.493 3.378,0 5.347,-2.2031 5.347,-5.768 V 42.1551 h -4.465 v 8.6687 c 0,2.0871 -0.999,3.1602 -2.702,3.1602 -1.704,0 -2.791,-1.0731 -2.791,-3.1602 v -8.6687 h -4.465 v 15.5398"
         style="fill:#213c6b;fill-opacity:1;fill-rule:nonzero;stroke:none;stroke-width:0.1"
         id="path24"
         inkscape:connector-curvature="0" />
      <path
         d="m 181.837,57.6949 h 4.465 V 42.1551 h -4.465 z m -0.118,5.6242 h 4.7 v -3.914 h -4.7 v 3.914"
         style="fill:#213c6b;fill-opacity:1;fill-rule:nonzero;stroke:none;stroke-width:0.1"
         id="path26"
         inkscape:connector-curvature="0" />
      <path
         d="m 189.152,49.8379 v 0.059 c 0,4.4351 3.437,8.0871 8.254,8.0871 2.967,0 4.817,-0.9852 6.286,-2.609 l -2.731,-2.898 c -0.999,1.0429 -1.998,1.7101 -3.584,1.7101 -2.233,0 -3.819,-1.943 -3.819,-4.2332 v -0.057 c 0,-2.3778 1.557,-4.291 3.995,-4.291 1.499,0 2.526,0.6371 3.613,1.6523 l 2.614,-2.6094 c -1.527,-1.6527 -3.29,-2.8406 -6.433,-2.8406 -4.728,0 -8.195,3.5938 -8.195,8.0297"
         style="fill:#213c6b;fill-opacity:1;fill-rule:nonzero;stroke:none;stroke-width:0.1"
         id="path28"
         inkscape:connector-curvature="0" />
      <path
         d="m 204.87,44.2141 1.909,2.8988 c 1.704,-1.2168 3.495,-1.8547 4.964,-1.8547 1.293,0 1.88,0.4637 1.88,1.159 v 0.0578 c 0,0.957 -1.528,1.2762 -3.26,1.798 -2.203,0.6372 -4.7,1.652 -4.7,4.668 v 0.057 c 0,3.1598 2.585,4.929 5.757,4.929 1.998,0 4.172,-0.6668 5.875,-1.7981 l -1.703,-3.0437 c -1.558,0.8988 -3.115,1.45 -4.26,1.45 -1.087,0 -1.645,-0.4641 -1.645,-1.0731 v -0.0582 c 0,-0.8699 1.498,-1.275 3.201,-1.8551 2.204,-0.725 4.759,-1.7687 4.759,-4.6097 v -0.0582 c 0,-3.45 -2.614,-5.0161 -6.021,-5.0161 -2.203,0 -4.67,0.725 -6.756,2.3493"
         style="fill:#213c6b;fill-opacity:1;fill-rule:nonzero;stroke:none;stroke-width:0.1"
         id="path30"
         inkscape:connector-curvature="0" />
    </g>
    <g
       id="g875"
       transform="matrix(0.31154227,0,0,0.31154227,195.20936,75.941073)">
      <path
         d="m 134.949,189.547 c 17.043,0 32.358,-7.503 42.844,-19.37 2.428,-0.869 4.675,-2.116 6.677,-3.667 -10.87,15.715 -29.009,26.037 -49.521,26.037 -33.187,0 -60.1857,-26.999 -60.1857,-60.185 0,-4.042 0.4074,-7.991 1.1711,-11.812 0.4531,2.088 1.1769,4.075 2.1308,5.925 -0.1988,1.936 -0.3019,3.9 -0.3019,5.887 0,31.532 25.6537,57.185 57.1857,57.185"
         style="fill:#2f8887;fill-opacity:1;fill-rule:nonzero;stroke:none;stroke-width:0.1"
         id="path32"
         inkscape:connector-curvature="0" />
      <path
         d="m 193.79,144.988 c -0.248,-2.592 -0.908,-5.064 -1.909,-7.354 0.159,-1.737 0.252,-3.494 0.252,-5.272 0,-31.532 -25.653,-57.1839 -57.184,-57.1839 -15.586,0 -29.73,6.2739 -40.0549,16.4219 -2.0972,0.418 -4.0968,1.109 -5.9628,2.0309 11.0492,-13.1059 27.5737,-21.4528 46.0177,-21.4528 33.185,0 60.184,26.9981 60.184,60.1839 0,4.331 -0.469,8.552 -1.343,12.626"
         style="fill:#2f8887;fill-opacity:1;fill-rule:nonzero;stroke:none;stroke-width:0.1"
         id="path34"
         inkscape:connector-curvature="0" />
      <path
         d="m 169.635,167.57 h -47.702 v -7.957 h 47.702 c 6.778,0 12.291,-5.513 12.291,-12.29 0,-6.777 -5.513,-12.291 -12.291,-12.291 h -31.714 v -27.903 -0.019 h 7.957 v 0.019 19.946 h 23.757 c 11.165,0 20.248,9.083 20.248,20.248 0,0.362 -0.035,0.716 -0.054,1.074 -0.264,5.005 -2.34,9.53 -5.601,12.926 -3.688,3.842 -8.86,6.247 -14.593,6.247"
         style="fill:#2f8887;fill-opacity:1;fill-rule:nonzero;stroke:none;stroke-width:0.1"
         id="path36"
         inkscape:connector-curvature="0" />
      <path
         d="m 99.648,103.108 c -6.7773,0 -12.291,5.514 -12.291,12.29 0,6.777 5.5137,12.291 12.291,12.291 h 30.831 v 26.694 h -7.957 V 135.646 H 99.648 c -10.2773,0 -18.7707,-7.703 -20.0593,-17.634 -0.1117,-0.858 -0.1887,-1.726 -0.1887,-2.614 0,-7.342 3.9414,-13.764 9.8066,-17.3148 3.0536,-1.848 6.6192,-2.932 10.4414,-2.932 h 46.548 v 7.9568 H 99.648"
         style="fill:#213c6b;fill-opacity:1;fill-rule:nonzero;stroke:none;stroke-width:0.1"
         id="path38"
         inkscape:connector-curvature="0" />
    </g>
  </g>
</svg>
