<?xml version="1.0" encoding="UTF-8" standalone="no"?>
<svg
   xmlns:dc="http://purl.org/dc/elements/1.1/"
   xmlns:cc="http://creativecommons.org/ns#"
   xmlns:rdf="http://www.w3.org/1999/02/22-rdf-syntax-ns#"
   xmlns:svg="http://www.w3.org/2000/svg"
   xmlns="http://www.w3.org/2000/svg"
   id="svg8"
   version="1.1"
   viewBox="0 0 472.66321 135.4991"
   height="135.4991mm"
   width="472.66321mm">
  <defs
     id="defs2" />
  <metadata
     id="metadata5">
    <rdf:RDF>
      <cc:Work
         rdf:about="">
        <dc:format>image/svg+xml</dc:format>
        <dc:type
           rdf:resource="http://purl.org/dc/dcmitype/StillImage" />
        <dc:title></dc:title>
      </cc:Work>
    </rdf:RDF>
  </metadata>
  <g
     transform="translate(277.53102,-81.083784)"
     id="layer1">
    <g
       id="g823"
       transform="matrix(0.35277777,0,0,0.35277777,-277.7956,80.819201)">
      <g
         id="g825">
        <g
           id="g827">
          <path
             d="M 29.422,1.5 H 356.078 C 371.547,1.5 384,13.953 384,29.422 V 356.078 C 384,371.547 371.547,384 356.078,384 H 29.422 C 13.953,384 1.5,371.547 1.5,356.078 V 29.422 C 1.5,13.953 13.953,1.5 29.422,1.5 Z"
             style="fill:#008786;fill-opacity:1;fill-rule:nonzero;stroke:#000000;stroke-width:1.5;stroke-linecap:round;stroke-linejoin:miter;stroke-miterlimit:4;stroke-dasharray:none;stroke-opacity:1"
             id="path829" />
        </g>
        <g
           id="g831">
          <path
             d="M 357,192.75 C 357,283.461 283.461,357 192.75,357 102.039,357 28.5,283.461 28.5,192.75 28.5,102.039 102.039,28.5 192.75,28.5 283.461,28.5 357,102.039 357,192.75 Z"
             style="fill:#ffffff;fill-opacity:1;fill-rule:nonzero;stroke:#000000;stroke-width:1.5;stroke-linecap:round;stroke-linejoin:miter;stroke-miterlimit:4;stroke-dasharray:none;stroke-opacity:1"
             id="path833" />
        </g>
        <g
           id="g835">
          <path
             d="M 181.5,258.75 308.25,384 l 42.25,-12.121 6.09,-2.41 7.203,1.617 2.043,-5.637 4.637,-1.379 -2.243,-4.261 L 383.805,315.68 384,308.25 257.25,183 301.5,138.75 H 137.25 V 303 Z"
             style="fill:#008786;fill-opacity:1;fill-rule:evenodd;stroke:#000000;stroke-width:1.5;stroke-linecap:butt;stroke-linejoin:miter;stroke-miterlimit:4;stroke-dasharray:none;stroke-opacity:1"
             id="path837" />
        </g>
        <g
           id="g839">
          <path
             d="M 357,192.75 C 357,283.461 283.461,357 192.75,357 102.039,357 28.5,283.461 28.5,192.75 28.5,102.039 102.039,28.5 192.75,28.5 283.461,28.5 357,102.039 357,192.75 Z"
             style="fill:none;stroke:#000000;stroke-width:1.5;stroke-linecap:round;stroke-linejoin:miter;stroke-miterlimit:4;stroke-dasharray:none;stroke-opacity:1"
             id="path841" />
        </g>
        <path
           d="m 287.168,362.047 -21.539,-21.219 2.363,-1.191 c 10.875,-5.469 22.711,-13.426 35.231,-24.379 2.531,-2.215 10.293,-9.914 12.629,-12.559 9.484,-10.715 17.062,-21.816 23.601,-34.371 0.547,-1.047 0.992,-2.039 1.035,-2.023 0.047,0.019 9.711,9.66 21.387,21.203 l 21.793,21.453 0.66,10.543 c 0.379,6.086 -1.051,17.512 -1.051,25.289 l 0.59,13.977 -0.336,2.82 c -0.316,2.68 -0.664,2.758 -1.758,5.078 -0.828,1.766 -1.511,3.176 -2.707,4.937 -1.554,2.29 -1.257,2.774 -4.093,4.829 l -3.106,2.25 -2.91,2.214 -3.832,1.446 -4.305,0.945 -3.882,0.473 -24.18,-0.52 h -24.145 l -21.445,-21.191 z"
           style="fill:#ffffff;fill-opacity:1;fill-rule:nonzero;stroke:none"
           id="path843" />
        <g
           id="g845">
          <path
             d="M 29.422,1.5 H 356.078 C 371.547,1.5 384,13.953 384,29.422 V 356.078 C 384,371.547 371.547,384 356.078,384 H 29.422 C 13.953,384 1.5,371.547 1.5,356.078 V 29.422 C 1.5,13.953 13.953,1.5 29.422,1.5 Z"
             style="fill:none;stroke:#000000;stroke-width:1.5;stroke-linecap:round;stroke-linejoin:miter;stroke-miterlimit:4;stroke-dasharray:none;stroke-opacity:1"
             id="path847" />
        </g>
        <path
           d="m 455.258,177.141 c 0,-19.996 5.82,-36.254 17.469,-48.778 11.699,-12.582 27.132,-18.871 46.304,-18.871 18.239,0 32.907,6.071 44,18.211 11.153,12.141 16.727,27.738 16.727,46.801 0,19.887 -5.793,36.035 -17.383,48.449 -0.715,0.77 -1.43,1.512 -2.145,2.227 l 32.465,31.308 h -40.293 l -16.972,-17.3 c -5.715,1.535 -11.867,2.304 -18.457,2.304 -18.293,0 -33.153,-5.988 -44.578,-17.961 -11.426,-12.031 -17.137,-27.492 -17.137,-46.39 z m 28.59,-1.485 c 0,12.414 2.996,22.578 8.98,30.489 5.988,7.855 14.203,11.781 24.637,11.781 10.66,0 18.953,-3.762 24.887,-11.285 5.933,-7.582 8.898,-17.746 8.898,-30.489 0,-13.293 -2.883,-23.785 -8.652,-31.476 -5.77,-7.746 -13.899,-11.617 -24.391,-11.617 -10.656,0 -19.059,3.953 -25.211,11.863 -6.098,7.91 -9.148,18.156 -9.148,30.734 z"
           style="fill:#005e5d;fill-opacity:1;fill-rule:nonzero;stroke:none"
           id="path849" />
        <path
           d="m 683.91,239.27 h -26.449 v -13.926 h -0.414 c -6.809,10.765 -16.121,16.148 -27.934,16.148 -21.203,0 -31.804,-12.797 -31.804,-38.394 v -54.961 h 26.617 v 52.488 c 0,13.621 5.328,20.434 15.984,20.434 5.328,0 9.586,-1.868 12.77,-5.602 3.187,-3.738 4.781,-8.789 4.781,-15.164 v -52.156 h 26.449 z"
           style="fill:#005e5d;fill-opacity:1;fill-rule:nonzero;stroke:none"
           id="path851" />
        <path
           d="m 705.746,118.723 c 0,-4.067 1.426,-7.364 4.285,-9.891 2.91,-2.582 6.617,-3.871 11.121,-3.871 4.614,0 8.352,1.316 11.207,3.953 2.856,2.582 4.286,5.852 4.286,9.809 0,4.007 -1.457,7.359 -4.368,10.05 -2.91,2.637 -6.621,3.954 -11.125,3.954 -4.449,0 -8.129,-1.344 -11.039,-4.036 -2.914,-2.691 -4.367,-6.015 -4.367,-9.968 z m 1.977,120.547 v -91.133 h 26.531 v 91.133 z"
           style="fill:#005e5d;fill-opacity:1;fill-rule:nonzero;stroke:none"
           id="path853" />
        <path
           d="m 826.539,235.891 c -6.371,3.734 -15.434,5.601 -27.191,5.601 -13.899,0 -25.129,-4.23 -33.7,-12.687 -8.57,-8.461 -12.855,-19.418 -12.855,-32.879 0,-15.488 4.613,-27.684 13.844,-36.582 9.226,-8.953 21.531,-13.434 36.914,-13.434 10.383,0 18.074,1.43 23.07,4.285 v 22.825 c -6.098,-4.45 -12.742,-6.672 -19.937,-6.672 -8.133,0 -14.668,2.472 -19.614,7.414 -4.886,4.945 -7.332,11.73 -7.332,20.351 0,8.352 2.336,14.942 7.004,19.778 4.668,4.777 11.012,7.168 19.035,7.168 7.086,0 14.004,-2.254 20.762,-6.758 z"
           style="fill:#005e5d;fill-opacity:1;fill-rule:nonzero;stroke:none"
           id="path855" />
        <path
           d="M 935.141,239.27 H 902.84 l -30.324,-45.075 h -0.328 V 239.27 H 845.574 V 104.383 h 26.614 v 85.859 h 0.328 l 28.429,-42.105 h 31.723 l -33.785,43.011 z"
           style="fill:#005e5d;fill-opacity:1;fill-rule:nonzero;stroke:none"
           id="path857" />
        <path
           d="m 942.887,207.133 c 10.269,8.515 21.941,12.773 35.015,12.773 7.418,0 12.993,-1.265 16.727,-3.793 3.738,-2.582 5.605,-5.875 5.605,-9.886 0,-3.461 -1.484,-6.731 -4.449,-9.805 -2.969,-3.078 -10.797,-7.25 -23.484,-12.524 -19.942,-8.46 -29.91,-20.765 -29.91,-36.914 0,-11.867 4.504,-21.066 13.511,-27.605 9.067,-6.59 21.039,-9.887 35.926,-9.887 12.469,0 22.934,1.621 31.395,4.863 v 25.543 c -8.571,-5.824 -18.594,-8.734 -30.075,-8.734 -6.703,0 -12.058,1.234 -16.07,3.707 -4.008,2.418 -6.012,5.684 -6.012,9.805 0,3.297 1.372,6.344 4.118,9.144 2.746,2.75 9.531,6.485 20.351,11.207 12.692,5.438 21.399,11.18 26.121,17.223 4.782,6.043 7.168,13.238 7.168,21.586 0,12.25 -4.34,21.59 -13.019,28.016 -8.676,6.429 -21.008,9.64 -36.996,9.64 -14.61,0 -26.586,-2.359 -35.922,-7.086 z"
           style="fill:#005e5d;fill-opacity:1;fill-rule:nonzero;stroke:none"
           id="path859" />
        <path
           d="m 1074.227,228.309 v 52.898 h -26.614 v -133.07 h 26.614 v 13.926 h 0.328 c 6.976,-10.766 16.836,-16.153 29.582,-16.153 11.59,0 20.652,4.067 27.191,12.195 6.535,8.079 9.805,19.09 9.805,33.043 0,15.215 -3.789,27.411 -11.371,36.586 -7.578,9.172 -17.524,13.758 -29.828,13.758 -11.149,0 -19.61,-4.394 -25.379,-13.183 z m -0.414,-29.332 c 0,6.48 1.757,11.781 5.273,15.902 3.516,4.121 8.078,6.18 13.68,6.18 6.648,0 11.808,-2.582 15.492,-7.746 3.734,-5.165 5.601,-12.469 5.601,-21.918 0,-16.7 -6.507,-25.047 -19.527,-25.047 -6.043,0 -10.988,2.304 -14.832,6.922 -3.789,4.613 -5.687,10.546 -5.687,17.796 z"
           style="fill:#005e5d;fill-opacity:1;fill-rule:nonzero;stroke:none"
           id="path861" />
        <path
           d="m 1154.563,194.113 c 0,-14.996 4.476,-26.777 13.433,-35.347 9.008,-8.571 21.094,-12.856 36.254,-12.856 14.668,0 26.313,4.231 34.938,12.692 8.621,8.402 12.933,19.718 12.933,33.949 0,14.941 -4.422,26.832 -13.266,35.676 -8.843,8.843 -20.816,13.265 -35.925,13.265 -14.832,0 -26.614,-4.23 -35.348,-12.687 -8.68,-8.516 -13.019,-20.078 -13.019,-34.692 z m 26.945,-0.328 c 0,18.184 7.414,27.274 22.246,27.274 14.226,0 21.344,-9.34 21.344,-28.016 0,-17.797 -7.172,-26.695 -21.508,-26.695 -6.977,0 -12.414,2.386 -16.313,7.168 -3.847,4.777 -5.769,11.535 -5.769,20.269 z"
           style="fill:#005e5d;fill-opacity:1;fill-rule:nonzero;stroke:none"
           id="path863" />
        <path
           d="m 1324.715,238.195 c -4.012,2.2 -10.082,3.297 -18.211,3.297 -19.336,0 -29.004,-10.16 -29.004,-30.484 v -43.012 h -14.996 v -19.859 h 14.996 v -20.024 l 26.449,-7.578 v 27.602 h 20.766 v 19.859 h -20.766 v 38.395 c 0,9.722 3.848,14.586 11.535,14.586 2.969,0 6.043,-0.879 9.231,-2.637 z"
           style="fill:#005e5d;fill-opacity:1;fill-rule:nonzero;stroke:none"
           id="path865" />
        <g
           id="g867">
          <path
             d="m 1339.348,122.758 c 0,6.035 -4.891,10.93 -10.926,10.93 -2.899,0 -5.68,-1.153 -7.727,-3.204 -2.05,-2.046 -3.203,-4.828 -3.203,-7.726 0,-2.899 1.153,-5.676 3.203,-7.727 2.047,-2.051 4.828,-3.199 7.727,-3.199 2.898,0 5.676,1.148 7.726,3.199 2.047,2.051 3.2,4.828 3.2,7.727 z"
             style="fill:none;stroke:#005e5d;stroke-width:2.46953607;stroke-linecap:butt;stroke-linejoin:miter;stroke-miterlimit:4;stroke-dasharray:none;stroke-opacity:1"
             id="path869" />
        </g>
        <path
           d="m 1327.754,121.77 c 0.68,0 1.172,-0.137 1.469,-0.395 0.297,-0.246 0.457,-0.668 0.457,-1.258 0,-0.582 -0.16,-0.988 -0.457,-1.25 -0.297,-0.246 -0.789,-0.367 -1.469,-0.367 h -1.383 v 3.27 h 1.383 m -1.383,2.261 v 4.813 h -3.285 v -12.731 h 5.012 c 1.679,0 2.902,0.285 3.679,0.856 0.793,0.554 1.176,1.441 1.176,2.664 0,0.84 -0.199,1.531 -0.605,2.074 -0.407,0.531 -1.012,0.941 -1.84,1.188 0.457,0.109 0.851,0.343 1.211,0.703 0.355,0.359 0.715,0.902 1.074,1.64 l 1.789,3.606 h -3.496 l -1.555,-3.16 c -0.308,-0.629 -0.629,-1.075 -0.949,-1.297 -0.32,-0.235 -0.754,-0.356 -1.285,-0.356 h -0.926"
           style="fill:#005e5d;fill-opacity:1;fill-rule:nonzero;stroke:none"
           id="path871" />
      </g>
    </g>
  </g>
</svg>
