<?xml version="1.0" encoding="UTF-8"?>
<svg version="1.1" viewBox="0 0 1482.6 509.87" xmlns="http://www.w3.org/2000/svg" xmlns:cc="http://creativecommons.org/ns#" xmlns:dc="http://purl.org/dc/elements/1.1/" xmlns:rdf="http://www.w3.org/1999/02/22-rdf-syntax-ns#">
<metadata>
<rdf:RDF>
<cc:Work rdf:about="">
<dc:format>image/svg+xml</dc:format>
<dc:type rdf:resource="http://purl.org/dc/dcmitype/StillImage"/>
<dc:title/>
</cc:Work>
</rdf:RDF>
</metadata>
<g transform="translate(-123.39 -274.24)">
<path d="m454.94 360.71c-3.2317-41.504-37.586-79.028-79.27-84.007-47.598-8.4018-94.558 11.557-134.76 35.289-47.653 30.155-84.687 76.555-102.9 129.97-14.834 46.255-19.389 96.842-6.8012 144.2 14.837 61.778 53.774 117.71 107 152.53 34.396 22.821 73.937 38.051 115.16 41.994 30.216 5.2597 61.107 1.5955 91.638 2.6827h191.99v-79c-89.154-0.17815-178.37 0.35603-267.49-0.26661-53.234-7.5281-105.02-32.714-138.93-75.214-32.275-36.636-47.223-86.322-44.924-134.75 1.3559-40.37 14.089-81.218 41.365-111.73 23.233-27.51 51.571-52.27 85.082-66.218 29.78-12.114 67.042-15.767 93.624 5.5477 14.893 11.365 26.726 29.562 24.193 48.977-25.253-11.92-54.03-14.967-81.259-8.7921-33.477 4.5083-62.172 29.953-72.369 61.922-11.037 30.02-8.7308 63.617-1.854 94.326 9.4831 32.273 29.122 60.568 53.918 83.03 25.391 23.592 54.834 43.442 86.882 56.758 26.793 11.759 59.263 11.473 83.871-5.4325 33.927-21.065 62.148-50.77 85.022-83.235 21.479-33.109 37.189-73.278 28.607-113.19-6.003-30.558-27.073-57.012-52.607-73.993-30.653-19.698-70.265-23.335-104.76-12.812-0.14579-2.8639-0.29159-5.7278-0.43738-8.5917z" fill="#003d6d" stroke="#000" stroke-width="1px"/>
<path d="m336.22 535.14c1.5932-0.61056 3.0795-0.58755 5.814-4.8116 1.4996-3.343 1.7746-6.8235 2.1726-10.306 0.2605-6.212-0.21917-12.473 1.1295-18.592 0.93792-5.8526 2.3193-11.698 5.2329-16.91 3.9614-7.9256 9.68-14.85 13.563-22.835 3.9075-7.294 6.5754-15.465 6.2861-23.846 0.0163-8.9279-2.8122-17.967-9.1051-24.486-3.1615-2.953-5.7701-7.1838-10.052-8.5045-3.3725-1.2952-6.805-2.3357-10.432-2.5488-2.8206-0.77234-5.5936-0.14862-8.3654 0.50967-3.4342 0.49877-6.4513 2.4294-9.5187 3.9266-3.6451 2.6044-7.6375 4.8057-10.431 8.3992-2.5597 2.6035-5.0816 5.2357-6.7043 8.5494-2.9016 4.2162-4.8266 8.9306-6.753 13.644-1.4641 6.0932-2.5105 12.14-2.7895 18.407-0.33194 5.8952-0.27349 12.067 0.63266 17.934 0.37243 5.9502 2.129 11.704 3.4789 17.478 2.1671 5.6104 3.7601 11.484 7.0494 16.58 2.8223 5.5698 6.6974 10.506 10.28 15.586 3.1311 3.5844 6.5917 6.9563 10.231 9.9592 1.9047 1.2503 4.184 2.2748 6.5431 2.1113 0.59703-3e-3 1.3374-0.17354 1.7364-0.24585z" fill="#fff"/>
<g fill="#006882" aria-label="BlueCherry">
<path d="m697.92 565.56c6.48 0.9 16.38 1.8 29.52 1.8 24.66 0 40.14-4.5 49.5-12.96 8.1-7.2 12.6-17.64 12.6-28.44 0-17.64-11.52-29.88-27-33.84v-0.72c14.76-5.58 22.14-17.28 22.14-29.88 0-11.34-5.22-20.52-13.5-26.1-9.54-6.66-21.42-8.82-38.16-8.82-13.5 0-27.18 1.26-35.1 2.88zm26.46-118.26c2.34-0.54 5.94-0.9 11.7-0.9 11.88 0 22.14 4.5 22.14 18.18 0 11.34-9 19.44-24.12 19.44h-9.72zm9.9 56.16c13.68 0 27.36 5.76 27.36 21.78 0 15.66-12.24 22.14-26.64 22.14-4.68 0-7.92-0.18-10.62-0.72v-43.2z"/>
<path d="m808.98 421.38v144.72h26.64v-144.72z"/>
<path d="m917.57 465.84v61.74c0 11.34-7.74 18.72-16.38 18.72-10.98 0-15.3-9.54-15.3-24.66v-55.8h-26.64v59.76c0 30.06 12.96 42.48 32.04 42.48 15.48 0 24.66-8.82 28.8-15.3h0.54l1.26 13.32h23.22c-0.36-8.46-0.9-18.72-0.9-30.6v-69.66z"/>
<path d="m1048.2 523.98c0.54-2.88 0.72-6.66 0.72-10.62 0-32.4-15.84-49.68-40.14-49.68-29.34 0-45.9 24.84-45.9 53.64 0 31.14 17.64 50.58 48.6 50.58 12.42 0 24.12-2.16 32.4-5.76l-3.78-18.36c-6.84 2.34-14.58 4.14-24.48 4.14-14.4 0-26.64-6.84-27.36-23.94zm-59.94-18.54c0.72-9.9 6.12-23.22 18.9-23.22 13.14 0 17.28 12.78 17.1 23.22z"/>
<path d="m1158.5 430.92c-3.96-2.16-13.68-5.22-28.62-5.22-36.72 0-67.86 24.48-67.86 72.9 0 41.04 23.04 69.3 64.62 69.3 14.22 0 25.38-2.7 30.6-5.22l-3.78-21.42c-5.4 2.34-14.22 3.96-22.5 3.96-25.02 0-41.04-16.74-41.04-48.06 0-33.48 18.36-49.14 41.22-49.14 9.54 0 16.74 2.16 22.14 4.5z"/>
<path d="m1202 477.9v-56.52h-26.64v144.72h26.64v-60.84c0-14.94 10.26-19.62 16.92-19.62 11.52 0 15.48 9.9 15.48 22.68v57.78h26.64v-59.94c0-29.52-14.04-42.48-31.86-42.48-8.64 0-19.62 3.78-26.82 14.22z"/>
<path d="m1364.6 523.98c0.54-2.88 0.72-6.66 0.72-10.62 0-32.4-15.84-49.68-40.14-49.68-29.34 0-45.9 24.84-45.9 53.64 0 31.14 17.64 50.58 48.6 50.58 12.42 0 24.12-2.16 32.4-5.76l-3.78-18.36c-6.84 2.34-14.58 4.14-24.48 4.14-14.4 0-26.64-6.84-27.36-23.94zm-59.94-18.54c0.72-9.9 6.12-23.22 18.9-23.22 13.14 0 17.28 12.78 17.1 23.22z"/>
<path d="m1407 483.3-1.08-17.46h-22.86c0.36 9 0.72 18.9 0.72 31.32v68.94h26.64v-51.84c0-17.1 9.18-25.2 21.24-25.2 2.7 0 4.86 0.18 6.84 0.54v-25.38c-1.8-0.36-3.42-0.54-5.94-0.54-9.36 0-20.16 6.66-24.84 19.62z"/>
<path d="m1476.6 483.3-1.08-17.46h-22.86c0.36 9 0.72 18.9 0.72 31.32v68.94h26.64v-51.84c0-17.1 9.18-25.2 21.24-25.2 2.7 0 4.86 0.18 6.84 0.54v-25.38c-1.8-0.36-3.42-0.54-5.94-0.54-9.36 0-20.16 6.66-24.84 19.62z"/>
<path d="m1565.7 518.22c-1.44 6.3-3.06 13.32-4.14 18.72h-0.54c-1.26-5.58-3.06-12.6-4.68-18.72l-14.76-52.38h-29.16l33.66 92.16c0.72 1.98 1.08 3.42 1.08 4.5 0 1.98-4.5 12.24-13.32 18.54-4.68 3.24-9.72 6.12-14.04 7.38l6.66 22.5c5.94-1.08 16.2-4.68 25.92-14.04 11.34-11.34 19.8-28.98 30.96-61.38l22.68-69.66h-27.72z"/>
</g>
</g>
</svg>
